<?xml version="1.0" encoding="UTF-8" standalone="no"?>
<!-- Created with Inkscape (http://www.inkscape.org/) -->

<svg
   version="1.1"
   id="svg6623"
   width="880"
   height="880"
   viewBox="0 0 880 880"
   sodipodi:docname="vegetation-lake-publicdomainvectors.org.svg"
   inkscape:version="1.2 (dc2aedaf03, 2022-05-15)"
   xmlns:inkscape="http://www.inkscape.org/namespaces/inkscape"
   xmlns:sodipodi="http://sodipodi.sourceforge.net/DTD/sodipodi-0.dtd"
   xmlns="http://www.w3.org/2000/svg"
   xmlns:svg="http://www.w3.org/2000/svg">
  <defs
     id="defs6627">
    <clipPath
       clipPathUnits="userSpaceOnUse"
       id="clipPath6641">
      <path
         d="M 0,660 H 660 V 0 H 0 Z"
         id="path6639" />
    </clipPath>
  </defs>
  <sodipodi:namedview
     id="namedview6625"
     pagecolor="#ffffff"
     bordercolor="#000000"
     borderopacity="0.25"
     inkscape:showpageshadow="2"
     inkscape:pageopacity="0.0"
     inkscape:pagecheckerboard="0"
     inkscape:deskcolor="#d1d1d1"
     showgrid="false"
     inkscape:zoom="0.95113636"
     inkscape:cx="440.52569"
     inkscape:cy="440.52569"
     inkscape:window-width="1920"
     inkscape:window-height="1017"
     inkscape:window-x="-8"
     inkscape:window-y="-8"
     inkscape:window-maximized="1"
     inkscape:current-layer="g6631">
    <inkscape:page
       x="0"
       y="0"
       id="page6629"
       width="880"
       height="880" />
  </sodipodi:namedview>
  <g
     id="g6631"
     inkscape:groupmode="layer"
     inkscape:label="Page 1"
     transform="matrix(1.3333333,0,0,-1.3333333,0,880)">
    <path
       d="M 0.206,0 H 660 V 659.683 H 0.206 Z"
       style="fill:#c7e3f5;fill-opacity:1;fill-rule:nonzero;stroke:none"
       id="path6633" />
    <g
       id="g6635">
      <g
         id="g6637"
         clip-path="url(#clipPath6641)">
        <g
           id="g6643"
           transform="translate(660.9443,575.5425)">
          <path
             d="m 0,0 v -272.827 c -17.542,8.736 -31.595,23.439 -39.495,41.451 -14.85,-25.753 -42.663,-43.088 -74.526,-43.088 -22.009,0 -42.081,8.276 -57.29,21.88 -10.278,-10.127 -24.383,-16.379 -39.953,-16.379 -11.818,0 -22.794,3.601 -31.892,9.766 -8.136,-3.427 -17.075,-5.321 -26.455,-5.321 -13.747,0 -26.541,4.071 -37.249,11.066 -11.944,-12.921 -29.03,-21.012 -48.011,-21.012 -22.976,0 -43.183,11.859 -54.839,29.789 -5.15,-1.157 -10.507,-1.772 -16.006,-1.772 -5.162,0 -10.195,0.543 -15.054,1.565 -10.46,-14.58 -27.551,-24.081 -46.867,-24.081 -26.267,0 -48.428,17.571 -55.375,41.601 -8.841,-8.074 -20.608,-13 -33.525,-13 -0.81,0 -1.616,0.021 -2.417,0.059 -5.339,-29.921 -31.49,-52.634 -62.946,-52.634 -6.557,0 -12.882,0.987 -18.838,2.821 V 22.32 c 7.553,4.628 16.435,7.297 25.943,7.297 27.466,0 49.733,-22.267 49.733,-49.733 0,-13.557 -5.427,-25.846 -14.225,-34.817 8.531,-3.741 16.395,-8.722 23.364,-14.715 11.12,9.194 25.385,14.718 40.942,14.718 34.676,0 62.936,-27.453 64.245,-61.81 12.378,9.787 28.017,15.63 45.02,15.63 29.485,0 54.867,-17.559 66.262,-42.791 1.515,0.105 3.041,0.163 4.583,0.163 11.997,0 23.232,-3.235 32.895,-8.873 12.511,14.974 31.324,24.503 52.365,24.503 22.243,0 42.001,-10.653 54.45,-27.133 1.291,0.087 2.589,0.135 3.897,0.135 5.912,0 11.613,-0.901 16.973,-2.574 12.392,32.254 43.655,55.149 80.27,55.149 25.02,0 47.544,-10.687 63.252,-27.746 -0.009,0.485 -0.019,0.971 -0.019,1.459 0,21.301 9.667,40.342 24.851,52.984 -6.65,8.132 -10.641,18.523 -10.641,29.848 0,22.411 15.627,41.174 36.578,45.986"
             style="fill:#eaf5fc;fill-opacity:1;fill-rule:evenodd;stroke:none"
             id="path6645" />
        </g>
        <g
           id="g6647"
           transform="translate(231.3892,360.2227)">
          <path
             d="m 0,0 c 7.308,0 13.233,-5.924 13.233,-13.232 0,-7.307 -5.925,-13.232 -13.233,-13.232 -7.309,0 -13.231,5.925 -13.231,13.232 C -13.231,-5.924 -7.309,0 0,0"
             style="fill:#bad526;fill-opacity:1;fill-rule:evenodd;stroke:none"
             id="path6649" />
        </g>
        <g
           id="g6651"
           transform="translate(269.8452,360.9341)">
          <path
             d="m 0,0 c 5.493,0 9.947,-4.453 9.947,-9.947 0,-5.493 -4.454,-9.946 -9.947,-9.946 -5.495,0 -9.947,4.453 -9.947,9.946 C -9.947,-4.453 -5.495,0 0,0"
             style="fill:#bad526;fill-opacity:1;fill-rule:evenodd;stroke:none"
             id="path6653" />
        </g>
        <g
           id="g6655"
           transform="translate(313.8931,373.0122)">
          <path
             d="m 0,0 c 10.301,0 18.65,-8.35 18.65,-18.65 0,-10.3 -8.349,-18.65 -18.65,-18.65 -10.301,0 -18.649,8.35 -18.649,18.65 C -18.649,-8.35 -10.301,0 0,0"
             style="fill:#bad526;fill-opacity:1;fill-rule:evenodd;stroke:none"
             id="path6657" />
        </g>
        <g
           id="g6659"
           transform="translate(360.5176,358.8027)">
          <path
             d="m 0,0 c 5.935,0 10.745,-4.812 10.745,-10.746 0,-5.935 -4.81,-10.745 -10.745,-10.745 -5.935,0 -10.744,4.81 -10.744,10.745 C -10.744,-4.812 -5.935,0 0,0"
             style="fill:#bad526;fill-opacity:1;fill-rule:evenodd;stroke:none"
             id="path6661" />
        </g>
        <g
           id="g6663"
           transform="translate(289.0269,381.271)">
          <path
             d="m 0,0 c 12.114,0 21.936,-9.821 21.936,-21.936 0,-12.114 -9.822,-21.936 -21.936,-21.936 -12.114,0 -21.934,9.822 -21.934,21.936 C -21.934,-9.821 -12.114,0 0,0"
             style="fill:#bad526;fill-opacity:1;fill-rule:evenodd;stroke:none"
             id="path6665" />
        </g>
        <g
           id="g6667"
           transform="translate(302.8662,352.7598)">
          <path
             d="M 0,0 C 116.724,0 213.144,-40.224 228.151,-92.361 H -228.148 C -213.141,-40.224 -116.724,0 0,0"
             style="fill:#bad526;fill-opacity:1;fill-rule:evenodd;stroke:none"
             id="path6669" />
        </g>
        <g
           id="g6671"
           transform="translate(92.9097,352.7598)">
          <path
             d="M 0,0 C 124.839,0 227.959,-40.224 244.009,-92.361 H -92.704 V -7.822 C -64.088,-2.782 -32.797,0 0,0"
             style="fill:#a7bf1c;fill-opacity:1;fill-rule:evenodd;stroke:none"
             id="path6673" />
        </g>
        <g
           id="g6675"
           transform="translate(561.8994,352.7598)">
          <path
             d="M 0,0 C 35.229,0 68.725,-3.193 99.045,-8.934 V -92.361 H -244.662 C -228.57,-40.224 -125.173,0 0,0"
             style="fill:#94ab13;fill-opacity:1;fill-rule:evenodd;stroke:none"
             id="path6677" />
        </g>
        <path
           d="M 0.206,260.398 H 660.944 V 131.093 H 0.206 Z"
           style="fill:#87a6c4;fill-opacity:1;fill-rule:evenodd;stroke:none"
           id="path6679" />
        <g
           id="g6681"
           transform="translate(302.8662,195.9238)">
          <path
             d="M 0,0 C 116.724,0 213.144,28.079 228.151,64.475 H -228.148 C -213.141,28.079 -116.724,0 0,0"
             style="fill:#7d9bba;fill-opacity:1;fill-rule:evenodd;stroke:none"
             id="path6683" />
        </g>
        <g
           id="g6685"
           transform="translate(92.9097,195.9238)">
          <path
             d="M 0,0 C 124.839,0 227.959,28.079 244.009,64.475 H -92.704 V 5.461 C -64.088,1.943 -32.797,0 0,0"
             style="fill:#7192b3;fill-opacity:1;fill-rule:evenodd;stroke:none"
             id="path6687" />
        </g>
        <g
           id="g6689"
           transform="translate(561.8994,195.9238)">
          <path
             d="M 0,0 C 35.229,0 68.725,2.229 99.045,6.237 V 64.475 H -244.662 C -228.57,28.079 -125.173,0 0,0"
             style="fill:#6789ab;fill-opacity:1;fill-rule:evenodd;stroke:none"
             id="path6691" />
        </g>
        <g
           id="g6693"
           transform="translate(660.9443,131.0938)">
          <path
             d="m 0,0 h -660.738 v -132.149 h 16.54 H 0 Z"
             style="fill:#82970a;fill-opacity:1;fill-rule:evenodd;stroke:none"
             id="path6695" />
        </g>
        <g
           id="g6697"
           transform="translate(145.6514,218.5762)">
          <path
             d="m 0,0 c -46.798,-51.927 -97.861,-43.952 -81.354,-140.067 4.816,-28.042 13.424,-54.303 11.526,-79.565 h -20.721 c -9.146,50.801 -35.184,97.965 -19.468,146.144 14.436,44.249 56.011,59.287 95.737,73.463 L -3.929,3.67 1.863,4.338 Z"
             style="fill:#94ab13;fill-opacity:1;fill-rule:evenodd;stroke:none"
             id="path6699" />
        </g>
        <g
           id="g6701"
           transform="translate(115.7686,39.6758)">
          <path
             d="m 0,0 c -6.074,-14.9 -13.673,-28.183 -22.294,-40.731 h -28.692 c 7.25,39.11 15.469,78.158 15.165,116.341 -0.59,73.755 -6.423,149.32 81.759,175.143 20.773,6.084 21.892,1.19 7.556,-13.684 C 20.362,202.697 5.26,200.1 4.845,144.123 4.44,89.589 18.426,54.685 0,0"
             style="fill:#697a0a;fill-opacity:1;fill-rule:evenodd;stroke:none"
             id="path6703" />
        </g>
        <g
           id="g6705"
           transform="translate(95.7485,53.9922)">
          <path
             d="m 0,0 c -3.928,-25.062 -4.999,-40.466 -9.871,-55.048 h -25.535 c 1.645,36.96 3.253,78.52 12.421,100.448 19.474,46.581 66.086,70.058 102.84,101.414 11.469,9.784 10.775,4.079 6.82,-8.804 C 71.18,87.516 17.579,74.185 2.085,8.797 Z"
             style="fill:#aac21f;fill-opacity:1;fill-rule:evenodd;stroke:none"
             id="path6707" />
        </g>
        <g
           id="g6709"
           transform="translate(193.3237,287.7764)">
          <path
             d="M 0,0 C 1.705,-116.083 84.417,-184.19 3.652,-288.832 H -23.62 c 15.838,54.025 19.561,101.013 11.388,159.407 -5.335,38.118 -10.463,86.285 3.983,122.533 l 4.579,8.581 3.277,3.195 z"
             style="fill:#515e07;fill-opacity:1;fill-rule:evenodd;stroke:none"
             id="path6711" />
        </g>
        <g
           id="g6713"
           transform="translate(262.7104,45.9092)">
          <path
             d="M 0,0 C -5.467,-20.565 -10.035,-34.102 -12.204,-46.965 H 17.04 c 11.284,29.397 21.927,59.47 22.311,79.23 0.976,50.479 -32.2,90.767 -53.179,134.287 -6.545,13.579 -8.21,8.081 -9.792,-5.302 C -29.818,108.795 13.849,74.969 1.642,8.89 Z"
             style="fill:#aac21f;fill-opacity:1;fill-rule:evenodd;stroke:none"
             id="path6715" />
        </g>
        <g
           id="g6717"
           transform="translate(329.6245,218.5762)">
          <path
             d="m 0,0 c -46.8,-51.927 -97.863,-43.952 -81.357,-140.067 4.817,-28.042 13.427,-54.303 11.526,-79.565 H -90.55 c -9.147,50.801 -35.184,97.965 -19.467,146.144 14.434,44.249 56.01,59.287 95.733,73.463 L -3.932,3.67 1.86,4.338 Z"
             style="fill:#94ab13;fill-opacity:1;fill-rule:evenodd;stroke:none"
             id="path6719" />
        </g>
        <g
           id="g6721"
           transform="translate(49.5078,358.271)">
          <path
             d="m 0,0 c 4.266,0 7.726,-3.46 7.726,-7.727 0,-4.267 -3.46,-7.726 -7.726,-7.726 -4.267,0 -7.727,3.459 -7.727,7.726 C -7.727,-3.46 -4.267,0 0,0"
             style="fill:#a7bf1c;fill-opacity:1;fill-rule:evenodd;stroke:none"
             id="path6723" />
        </g>
        <g
           id="g6725"
           transform="translate(79.9688,360.4019)">
          <path
             d="m 0,0 c 5.1,0 9.236,-4.135 9.236,-9.236 0,-5.1 -4.136,-9.236 -9.236,-9.236 -5.101,0 -9.236,4.136 -9.236,9.236 C -9.236,-4.135 -5.101,0 0,0"
             style="fill:#a7bf1c;fill-opacity:1;fill-rule:evenodd;stroke:none"
             id="path6727" />
        </g>
        <g
           id="g6729"
           transform="translate(102.1709,374.6113)">
          <path
             d="m 0,0 c 11.28,0 20.426,-9.146 20.426,-20.426 0,-11.281 -9.146,-20.426 -20.426,-20.426 -11.28,0 -20.426,9.145 -20.426,20.426 C -20.426,-9.146 -11.28,0 0,0"
             style="fill:#a7bf1c;fill-opacity:1;fill-rule:evenodd;stroke:none"
             id="path6731" />
        </g>
        <g
           id="g6733"
           transform="translate(123.6631,361.1118)">
          <path
             d="m 0,0 c 6.768,0 12.255,-5.487 12.255,-12.255 0,-6.769 -5.487,-12.256 -12.255,-12.256 -6.77,0 -12.255,5.487 -12.255,12.256 C -12.255,-5.487 -6.77,0 0,0"
             style="fill:#a7bf1c;fill-opacity:1;fill-rule:evenodd;stroke:none"
             id="path6735" />
        </g>
        <g
           id="g6737"
           transform="translate(166.3804,352.7642)">
          <path
             d="m 0,0 c 3.68,0 6.661,-2.983 6.661,-6.661 0,-3.678 -2.981,-6.66 -6.661,-6.66 -3.678,0 -6.661,2.982 -6.661,6.66 C -6.661,-2.983 -3.678,0 0,0"
             style="fill:#a7bf1c;fill-opacity:1;fill-rule:evenodd;stroke:none"
             id="path6739" />
        </g>
        <g
           id="g6741"
           transform="translate(378.0137,326.833)">
          <path
             d="m 0,0 c 6.474,0 11.724,-5.249 11.724,-11.724 0,-6.473 -5.25,-11.721 -11.724,-11.721 -6.474,0 -11.723,5.248 -11.723,11.721 C -11.723,-5.249 -6.474,0 0,0"
             style="fill:#94ab13;fill-opacity:1;fill-rule:evenodd;stroke:none"
             id="path6743" />
        </g>
        <g
           id="g6745"
           transform="translate(415.8477,351.3442)">
          <path
             d="m 0,0 c 9.908,0 17.937,-8.032 17.937,-17.94 0,-9.908 -8.029,-17.939 -17.937,-17.939 -9.907,0 -17.939,8.031 -17.939,17.939 C -17.939,-8.032 -9.907,0 0,0"
             style="fill:#94ab13;fill-opacity:1;fill-rule:evenodd;stroke:none"
             id="path6747" />
        </g>
        <g
           id="g6749"
           transform="translate(446.2188,365.1973)">
          <path
             d="m 0,0 c 13.342,0 24.156,-10.814 24.156,-24.155 0,-13.341 -10.814,-24.157 -24.156,-24.157 -13.34,0 -24.154,10.816 -24.154,24.157 C -24.154,-10.814 -13.34,0 0,0"
             style="fill:#94ab13;fill-opacity:1;fill-rule:evenodd;stroke:none"
             id="path6751" />
        </g>
        <g
           id="g6753"
           transform="translate(472.5068,351.6992)">
          <path
             d="m 0,0 c 8.044,0 14.564,-6.521 14.564,-14.565 0,-8.044 -6.52,-14.565 -14.564,-14.565 -8.043,0 -14.565,6.521 -14.565,14.565 C -14.565,-6.521 -8.043,0 0,0"
             style="fill:#94ab13;fill-opacity:1;fill-rule:evenodd;stroke:none"
             id="path6755" />
        </g>
        <g
           id="g6757"
           transform="translate(511.583,379.7617)">
          <path
             d="M 0,0 C 12.75,0 23.091,-10.338 23.091,-23.09 23.091,-35.841 12.75,-46.181 0,-46.181 c -12.752,0 -23.093,10.34 -23.093,23.091 C -23.093,-10.338 -12.752,0 0,0"
             style="fill:#94ab13;fill-opacity:1;fill-rule:evenodd;stroke:none"
             id="path6759" />
        </g>
        <g
           id="g6761"
           transform="translate(543.7324,367.3286)">
          <path
             d="m 0,0 c 9.515,0 17.228,-7.714 17.228,-17.228 0,-9.517 -7.713,-17.23 -17.228,-17.23 -9.517,0 -17.229,7.713 -17.229,17.23 C -17.229,-7.714 -9.517,0 0,0"
             style="fill:#94ab13;fill-opacity:1;fill-rule:evenodd;stroke:none"
             id="path6763" />
        </g>
        <g
           id="g6765"
           transform="translate(576.0576,380.8281)">
          <path
             d="m 0,0 c 14.422,0 26.11,-11.689 26.11,-26.11 0,-14.42 -11.688,-26.11 -26.11,-26.11 -14.42,0 -26.108,11.69 -26.108,26.11 C -26.108,-11.689 -14.42,0 0,0"
             style="fill:#94ab13;fill-opacity:1;fill-rule:evenodd;stroke:none"
             id="path6767" />
        </g>
        <g
           id="g6769"
           transform="translate(630.9434,361.29)">
          <path
             d="m 0,0 c 8.24,0 14.919,-6.68 14.919,-14.92 0,-8.241 -6.679,-14.92 -14.919,-14.92 -8.24,0 -14.92,6.679 -14.92,14.92 C -14.92,-6.68 -8.24,0 0,0"
             style="fill:#94ab13;fill-opacity:1;fill-rule:evenodd;stroke:none"
             id="path6771" />
        </g>
        <g
           id="g6773"
           transform="translate(436.7754,36.9424)">
          <path
             d="m 0,0 c -2.468,-15.75 -3.809,-27.684 -5.673,-37.998 h -28.96 c 1.533,32.063 3.871,64.796 11.647,83.396 19.475,46.582 66.089,70.06 102.842,101.415 11.467,9.785 10.773,4.081 6.819,-8.803 C 71.179,87.514 17.579,74.183 2.084,8.795 Z"
             style="fill:#aac21f;fill-opacity:1;fill-rule:evenodd;stroke:none"
             id="path6775" />
        </g>
        <g
           id="g6777"
           transform="translate(420.4365,77.748)">
          <path
             d="m 0,0 c -5.398,-37.937 -5.4,-55.799 -17.268,-78.804 h -18.917 c 2.107,44.442 2.636,100.999 13.199,128.845 19.475,51.342 66.086,77.22 102.84,111.778 11.468,10.785 10.772,4.497 6.822,-9.703 C 71.179,96.459 17.576,81.767 2.081,9.695 Z"
             style="fill:#aac21f;fill-opacity:1;fill-rule:evenodd;stroke:none"
             id="path6779" />
        </g>
        <g
           id="g6781"
           transform="translate(466.0342,227.9932)">
          <path
             d="m 0,0 c -46.798,-56.278 -97.861,-47.636 -81.355,-151.806 4.29,-27.083 11.591,-52.629 11.791,-77.243 h -22.622 c -10.226,51.659 -32.688,100.037 -17.831,149.403 14.436,47.957 56.01,64.254 95.736,79.619 L -3.93,3.979 1.861,4.701 Z"
             style="fill:#94ab13;fill-opacity:1;fill-rule:evenodd;stroke:none"
             id="path6783" />
        </g>
        <g
           id="g6785"
           transform="translate(617.2451,286.2744)">
          <path
             d="m 0,0 c 1.697,-115.529 83.658,-183.535 4.826,-287.33 h -28.005 c 15.468,53.396 19.046,100.051 10.95,157.903 -5.336,38.121 -10.463,86.287 3.982,122.534 l 4.579,8.583 3.275,3.193 z"
             style="fill:#515e07;fill-opacity:1;fill-rule:evenodd;stroke:none"
             id="path6787" />
        </g>
        <g
           id="g6789"
           transform="translate(576.4854,70.9512)">
          <path
             d="M 0,0 C 4.658,-33.887 5.299,-52.293 13.014,-72.007 H 35.773 C 33.958,-27.732 32.829,24.936 22.986,51.789 3.511,104.929 -43.1,131.71 -79.854,167.477 c -11.469,11.161 -10.775,4.655 -6.823,-10.043 15.498,-57.601 69.098,-72.807 84.593,-147.399 z"
             style="fill:#697a0a;fill-opacity:1;fill-rule:evenodd;stroke:none"
             id="path6791" />
        </g>
        <g
           id="g6793"
           transform="translate(333.9863,29.4814)">
          <path
             d="m 0,0 c -4.526,-11.105 -10.102,-21.097 -16.407,-30.537 h -24.311 c 5.74,30.784 12.045,61.509 11.806,91.567 -0.476,59.532 -5.185,120.524 65.994,141.369 16.763,4.91 17.67,0.96 6.097,-11.046 C 16.437,163.609 4.246,161.515 3.913,116.33 3.585,72.312 14.873,44.139 0,0"
             style="fill:#697a0a;fill-opacity:1;fill-rule:evenodd;stroke:none"
             id="path6795" />
        </g>
        <g
           id="g6797"
           transform="translate(587.6074,50.5527)">
          <path
             d="m 0,0 c 5.426,-23.03 9.986,-37.339 11.379,-51.608 h -27.932 c -11.093,31.304 -22.053,64.074 -21.862,84.981 0.461,50.484 34.771,89.815 56.977,132.719 6.929,13.387 8.439,7.844 9.637,-5.579 C 32.9,107.902 -11.709,75.335 -1.388,8.932 Z"
             style="fill:#aac21f;fill-opacity:1;fill-rule:evenodd;stroke:none"
             id="path6799" />
        </g>
        <g
           id="g6801"
           transform="translate(364.334,197.2607)">
          <path
             d="m 0,0 c 55.101,-51.926 104.89,-43.951 103.749,-140.065 -0.24,-20.248 -2.606,-39.567 -1.67,-58.251 h 24.895 c 4.1,42.827 14.905,83.455 -5.208,124.829 -21.509,44.25 -65.488,59.287 -107.48,73.464 L 3.344,3.67 -2.554,4.339 Z"
             style="fill:#697a0a;fill-opacity:1;fill-rule:evenodd;stroke:none"
             id="path6803" />
        </g>
        <g
           id="g6805"
           transform="translate(321.8423,191.3867)">
          <path
             d="m 0,0 c -13.662,33.513 -35.026,58.846 -58.403,86.024 7.044,-54.11 23.007,-108.706 22.583,-161.634 -0.33,-41.416 -2.315,-83.402 11.624,-116.832 h 37.45 c -5.511,10.948 -8.236,25 -8.409,48.317 C 4.443,-89.589 18.425,-54.685 0,0"
             style="fill:#697a0a;fill-opacity:1;fill-rule:evenodd;stroke:none"
             id="path6807" />
        </g>
        <g
           id="g6809"
           transform="translate(534.6113,-1.0557)">
          <path
             d="m 0,0 c -6.989,15.014 -9.08,35.551 -3.534,67.851 7.755,45.151 25.349,85.684 -6.934,124.857 C -3.222,123.921 -52.476,63.442 -32.195,1.271 -32.057,0.844 -31.909,0.423 -31.764,0 Z"
             style="fill:#94ab13;fill-opacity:1;fill-rule:evenodd;stroke:none"
             id="path6811" />
        </g>
        <g
           id="g6813"
           transform="translate(361.5684,71.2861)">
          <path
             d="M 0,0 C 11.195,47.516 18.705,57.913 2.313,107.408 -8.553,68.226 -38.729,1.205 -38.415,-33.37 c 0.125,-13.717 2.752,-26.606 6.952,-38.972 h 36.19 c -6.111,18.264 -9.996,38.445 -6.115,63.41 z"
             style="fill:#aac21f;fill-opacity:1;fill-rule:evenodd;stroke:none"
             id="path6815" />
        </g>
        <g
           id="g6817"
           transform="translate(230.3853,-1.0557)">
          <path
             d="m 0,0 c -15.428,56.995 -17.855,110.433 55.32,181.947 22.896,22.375 12.855,12.199 4.286,-13.596 C 40.001,109.332 33.965,60.48 41.238,0 Z"
             style="fill:#515e07;fill-opacity:1;fill-rule:evenodd;stroke:none"
             id="path6819" />
        </g>
        <g
           id="g6821"
           transform="translate(301.7979,406.2563)">
          <path
             d="m 0,0 c -1.096,-1.761 -3.414,-2.301 -5.176,-1.204 -1.76,1.096 -2.299,3.413 -1.203,5.174 l 39.194,63.148 c 1.094,1.761 3.414,2.301 5.174,1.206 1.762,-1.097 2.303,-3.415 1.207,-5.176 z"
             style="fill:#000000;fill-opacity:1;fill-rule:evenodd;stroke:none"
             id="path6823" />
        </g>
        <g
           id="g6825"
           transform="translate(163.7451,-1.0557)">
          <path
             d="m 0,0 c 6.25,79.021 18.503,151.629 37.366,217.184 20.159,70.065 47.866,132.118 83.852,185.377 l 12.468,-8.41 C 98.6,342.226 71.552,281.606 51.832,213.068 33.332,148.764 21.273,77.532 15.075,0 Z"
             style="fill:#697a0a;fill-opacity:1;fill-rule:evenodd;stroke:none"
             id="path6827" />
        </g>
        <g
           id="g6829"
           transform="translate(197.873,250.4248)">
          <path
             d="m 0,0 c 17.847,54.002 41.541,106.131 72.913,153.649 2.875,4.354 6.913,7.069 12.029,8.089 5.116,1.023 9.884,0.064 14.209,-2.855 l 3.166,-2.135 c 8.541,-5.76 10.859,-17.378 5.183,-25.976 C 78.119,86.259 55.977,37.314 39.279,-13.297 c -1.464,-4.433 -4.348,-7.717 -8.557,-9.74 -4.209,-2.024 -8.571,-2.225 -12.949,-0.598 l -7.815,2.906 C 1.603,-17.624 -2.799,-8.461 0,0"
             style="fill:#663c12;fill-opacity:1;fill-rule:evenodd;stroke:none"
             id="path6831" />
        </g>
        <g
           id="g6833"
           transform="translate(405.6113,479.6694)">
          <path
             d="m 0,0 c 1.318,-2.12 4.107,-2.768 6.227,-1.45 2.118,1.318 2.765,4.106 1.447,6.225 l -47.145,75.957 c -1.316,2.119 -4.105,2.768 -6.223,1.451 -2.119,-1.318 -2.771,-4.107 -1.451,-6.225 z"
             style="fill:#000000;fill-opacity:1;fill-rule:evenodd;stroke:none"
             id="path6835" />
        </g>
        <g
           id="g6837"
           transform="translate(570.916,-1.0557)">
          <path
             d="M 0,0 C -7.729,91.484 -22.241,175.732 -44.193,252.029 -68.442,336.307 -101.77,410.947 -145.054,475.01 L -160.05,464.894 C -117.848,402.436 -85.314,329.519 -61.593,247.079 -40.074,172.284 -25.803,89.694 -18.143,0 Z"
             style="fill:#697a0a;fill-opacity:1;fill-rule:evenodd;stroke:none"
             id="path6839" />
        </g>
        <g
           id="g6841"
           transform="translate(530.6191,292.2275)">
          <path
             d="m 0,0 c -21.467,64.956 -49.967,127.659 -87.703,184.817 -3.46,5.237 -8.317,8.503 -14.469,9.73 -6.156,1.229 -11.891,0.075 -17.095,-3.435 l -3.807,-2.567 c -10.274,-6.93 -13.063,-20.905 -6.235,-31.247 35.34,-53.542 61.974,-112.415 82.06,-173.292 1.763,-5.333 5.229,-9.282 10.292,-11.717 5.065,-2.434 10.312,-2.675 15.578,-0.719 l 9.402,3.495 C -1.929,-21.2 3.365,-10.179 0,0"
             style="fill:#663c12;fill-opacity:1;fill-rule:evenodd;stroke:none"
             id="path6843" />
        </g>
        <g
           id="g6845"
           transform="translate(173.543,346.9951)">
          <path
             d="m 0,0 c -0.68,-1.659 -2.574,-2.454 -4.232,-1.775 -1.659,0.677 -2.454,2.573 -1.775,4.231 L 18.22,61.89 c 0.675,1.658 2.572,2.452 4.23,1.775 1.658,-0.678 2.453,-2.574 1.774,-4.231 z"
             style="fill:#000000;fill-opacity:1;fill-rule:evenodd;stroke:none"
             id="path6847" />
        </g>
        <g
           id="g6849"
           transform="translate(113.4453,-1.0557)">
          <path
             d="m 0,0 c -4.542,61.137 -4.06,118.458 1.903,171.613 7.02,62.566 21.622,119.405 44.548,169.955 l 11.833,-5.355 C 35.931,286.929 21.681,231.406 14.814,170.203 8.906,117.533 8.458,60.682 13.014,0 Z"
             style="fill:#697a0a;fill-opacity:1;fill-rule:evenodd;stroke:none"
             id="path6851" />
        </g>
        <g
           id="g6853"
           transform="translate(107.6255,199.2871)">
          <path
             d="m 0,0 c 7.376,48.556 20.001,96.364 39.831,141.361 1.816,4.121 4.86,7.018 9.068,8.627 4.208,1.611 8.407,1.485 12.513,-0.372 l 3.002,-1.36 c 8.104,-3.668 11.763,-13.224 8.173,-21.365 C 54.02,84.741 42.256,39.869 35.366,-5.634 c -0.605,-3.987 -2.583,-7.2 -5.874,-9.531 -3.29,-2.333 -6.975,-3.136 -10.938,-2.385 l -7.075,1.342 C 3.917,-14.771 -1.156,-7.611 0,0"
             style="fill:#663c12;fill-opacity:1;fill-rule:evenodd;stroke:none"
             id="path6855" />
        </g>
      </g>
    </g>
  </g>
</svg>
